# xmcd
# 
# Track frame offsets:
#     150
#     14625
#     27834
#     48145
#     64185
#     79843
#     95601
#     110538
#     126330
#     141846
#     158993
#     172176
#     188185
# 
# Disc length: 2726
# 
# Revision: 0
# Processed by: cddbd v1.5.2PL0 Copyright (c) Steve Scherf et al.
# Submitted via: fre:ac v1.0.31
# 
DISCID=b60aa40d
DTITLE=Drew Baldridge - Dirt on Us
DYEAR=2016
DGENRE=Country
TTITLE0=Train
TTITLE1=Everyday Night
TTITLE2=Rebound
TTITLE3=Dance With Ya
TTITLE4=Dirt on Us
TTITLE5=Drama
TTITLE6=Burnt Toast
TTITLE7=Love on Your Body
TTITLE8=Everywhere I Go
TTITLE9=Tractors Don't Roll
TTITLE10=Curious Girl
TTITLE11=Town the World Forgot
TTITLE12=It Is Well With My Soul
EXTD=
EXTT0=
EXTT1=
EXTT2=
EXTT3=
EXTT4=
EXTT5=
EXTT6=
EXTT7=
EXTT8=
EXTT9=
EXTT10=
EXTT11=
EXTT12=
PLAYORDER=
